<svg xmlns="http://www.w3.org/2000/svg" width="770" height="200" viewBox="0 0 770 200">
      <rect width="770" height="200" fill="#fff" rx="6"/>
      
    <rect x="40" y="2" width="10" height="10" fill="#43a047" rx="2"/>
    <text x="54" y="11" font-size="10" fill="#666">Active</text>
    <rect x="100" y="2" width="10" height="10" fill="#e53935" rx="2"/>
    <text x="114" y="11" font-size="10" fill="#666">Deploy Down</text>
    <rect x="190" y="2" width="10" height="10" fill="#9e9e9e" rx="2"/>
    <text x="204" y="11" font-size="10" fill="#666">Archive</text>
  
      <text x="35" y="174" text-anchor="end" font-size="10" fill="#666">0</text><text x="35" y="94" text-anchor="end" font-size="10" fill="#666">7</text><text x="35" y="14" text-anchor="end" font-size="10" fill="#666">14</text>
      <line x1="40" y1="170" x2="770" y2="170" stroke="#ccc" stroke-width="1"/>
      <rect x="464" y="10" width="7" height="160" fill="#43a047" rx="1"/><rect x="472" y="10" width="7" height="160" fill="#43a047" rx="1"/><rect x="480" y="10" width="7" height="160" fill="#43a047" rx="1"/><rect x="488" y="10" width="7" height="160" fill="#43a047" rx="1"/><rect x="496" y="10" width="7" height="160" fill="#43a047" rx="1"/><rect x="504" y="10" width="7" height="160" fill="#43a047" rx="1"/><rect x="512" y="10" width="7" height="160" fill="#43a047" rx="1"/><rect x="520" y="10" width="7" height="160" fill="#43a047" rx="1"/><rect x="528" y="10" width="7" height="160" fill="#43a047" rx="1"/><rect x="536" y="10" width="7" height="160" fill="#43a047" rx="1"/><rect x="544" y="10" width="7" height="160" fill="#43a047" rx="1"/><rect x="552" y="10" width="7" height="160" fill="#43a047" rx="1"/><rect x="560" y="10" width="7" height="160" fill="#43a047" rx="1"/><rect x="568" y="10" width="7" height="160" fill="#43a047" rx="1"/><rect x="576" y="10" width="7" height="160" fill="#43a047" rx="1"/><rect x="584" y="10" width="7" height="160" fill="#43a047" rx="1"/><rect x="592" y="10" width="7" height="160" fill="#43a047" rx="1"/><rect x="600" y="10" width="7" height="160" fill="#43a047" rx="1"/><rect x="608" y="10" width="7" height="160" fill="#43a047" rx="1"/><rect x="616" y="10" width="7" height="160" fill="#43a047" rx="1"/><rect x="624" y="10" width="7" height="160" fill="#43a047" rx="1"/><rect x="632" y="10" width="7" height="160" fill="#43a047" rx="1"/><rect x="640" y="10" width="7" height="160" fill="#43a047" rx="1"/><rect x="648" y="10" width="7" height="160" fill="#43a047" rx="1"/><rect x="656" y="10" width="7" height="160" fill="#43a047" rx="1"/><rect x="664" y="10" width="7" height="160" fill="#43a047" rx="1"/><rect x="672" y="10" width="7" height="160" fill="#43a047" rx="1"/><rect x="680" y="10" width="7" height="160" fill="#43a047" rx="1"/><rect x="688" y="10" width="7" height="160" fill="#43a047" rx="1"/><rect x="696" y="10" width="7" height="160" fill="#43a047" rx="1"/><rect x="704" y="10" width="7" height="160" fill="#43a047" rx="1"/><rect x="712" y="10" width="7" height="160" fill="#43a047" rx="1"/><rect x="720" y="10" width="7" height="160" fill="#43a047" rx="1"/><rect x="728" y="10" width="7" height="160" fill="#43a047" rx="1"/><rect x="736" y="10" width="7" height="160" fill="#43a047" rx="1"/><rect x="744" y="10" width="7" height="160" fill="#43a047" rx="1"/><rect x="752" y="10" width="7" height="160" fill="#43a047" rx="1"/>
    </svg>